# xmcd
#
# Track frame offsets: 
#        150
#        10032
#        29952
#        45107
#        61237
#        74417
#        85690
#        96747
#        110572
#        125120
#        142997
#        160005
#        176670
#        187865
#        201852
#        218090
#        234570
#        251807
#
# Disc length: 3539 seconds
#
# Revision: 3
# Processed by: cddbd v1.5PL3 Copyright (c) Steve Scherf et al.
# Submitted via: ExactAudioCopy v0.95a5
#
DISCID=000dd112
DTITLE=Freddie King - Warner Blues
DYEAR=1998
DGENRE=Blues
TTITLE0=My feeling for the blues
TTITLE1=Stormy monday
TTITLE2=Yonder wall
TTITLE3=Get out of my life, woman
TTITLE4=What'd i say
TTITLE5=Hideway
TTITLE6=Funky
TTITLE7=Wide open
TTITLE8=Woke up this moring
TTITLE9=Today i sing the blues
TTITLE10=Play it cool
TTITLE11=Blue shadows
TTITLE12=You don't have to go
TTITLE13=I don't know
TTITLE14=Stumble
TTITLE15=Ain't  nobody's business what we do
TTITLE16=The thing i used to do
TTITLE17=Let me down easy
EXTD=YEAR: 1998
EXTT0=
EXTT1=
EXTT2=
EXTT3=
EXTT4=
EXTT5=
EXTT6=
EXTT7=
EXTT8=
EXTT9=
EXTT10=
EXTT11=
EXTT12=
EXTT13=
EXTT14=
EXTT15=
EXTT16=
EXTT17=
PLAYORDER=
